<svg width="31" height="31" viewBox="0 0 31 31" fill="none" xmlns="http://www.w3.org/2000/svg">
<path d="M30.4825 22.8893C30.2151 24.9218 29.2169 26.7876 27.6743 28.138C26.1318 29.4883 24.1505 30.2311 22.1004 30.2274C10.1902 30.2274 0.500014 20.5372 0.500014 8.62701C0.496339 6.57692 1.23906 4.59558 2.58945 3.05306C3.93984 1.51054 5.80556 0.512334 7.83814 0.24487C8.35213 0.18211 8.87263 0.287263 9.32195 0.544632C9.77126 0.802002 10.1253 1.19778 10.3312 1.67289L13.4992 8.74552V8.76352C13.6569 9.1272 13.722 9.52427 13.6887 9.91925C13.6555 10.3142 13.5249 10.6948 13.3087 11.0271C13.2817 11.0676 13.2532 11.1051 13.2232 11.1426L10.1002 14.8446C11.2237 17.1277 13.6117 19.4947 15.9248 20.6212L19.5758 17.5147C19.6117 17.4845 19.6493 17.4565 19.6883 17.4307C20.0203 17.2093 20.4022 17.0741 20.7995 17.0375C21.1968 17.0008 21.597 17.0638 21.9639 17.2207L21.9834 17.2297L29.05 20.3962C29.526 20.6014 29.9227 20.9551 30.1809 21.4045C30.4391 21.8539 30.5449 22.3748 30.4825 22.8893Z" fill="#64CCC5"/>
</svg>
